<svg xmlns="http://www.w3.org/2000/svg" xmlns:xlink="http://www.w3.org/1999/xlink" viewBox="0,0,256,256" width="144px" height="144px" fill-rule="nonzero"><g fill="none" fill-rule="nonzero" stroke="none" stroke-width="1" stroke-linecap="butt" stroke-linejoin="miter" stroke-miterlimit="10" stroke-dasharray="" stroke-dashoffset="0" font-family="none" font-weight="none" font-size="none" text-anchor="none" style="mix-blend-mode: normal"><g transform="scale(5.33333,5.33333)"><path d="M44,24c0,11.03 -8.97,20 -20,20c-11.03,0 -20,-9.095 -20,-20.125c0,-11.03 8.97,-19.875 20,-19.875v5c-8.33,0 -15,6.545 -15,14.875c0,8.33 6.67,15.1 15,15.1c8.33,0 15,-6.645 15,-14.975z" fill="#42f55f"></path><path d="M24.035,29.98l-0.03,0.02" fill="#d50000"></path><path d="M41,14l-13.85,13.4l-1.36,1.36c-0.45,0.45 -1.05,0.69 -1.68,0.69h-0.06c-0.66,-0.01 -1.26,-0.29 -1.7,-0.78l-6.88,-6.67l3.53,-3.53l4.98,4.98l13.02,-13.45z" fill="#ffc107"></path></g></g></svg>